<!DOCTYPE svg PUBLIC "-//W3C//DTD SVG 1.1//EN" "http://www.w3.org/Graphics/SVG/1.1/DTD/svg11.dtd">

<!-- Upload#863230SVG Repo, www.svgrepo.com, Transformed by: SVG Repo Mixer Tools -->
<svg fill="#863230" height="81px" width="81px" version="1.1" id="Layer_1" xmlns="http://www.w3.org/2000/svg" xmlns:xlink="http://www.w3.org/1999/xlink" viewBox="0 0 512 512" xml:space="preserve">

<g id="SVGRepo_bgCarrier" stroke-width="0"/>

<g id="SVGRepo_tracerCarrier" stroke-linecap="round" stroke-linejoin="round"/>

<g id="SVGRepo_iconCarrier"> <g> <g> <path d="M490.89,193c-12.389-12.389-28.535-19.639-45.864-20.723c-4.034-44.075-23.205-85.087-54.801-116.669 C354.379,19.749,306.711,0,256,0c-50.012,0-97.216,19.285-132.916,54.302c-32.394,31.774-52.025,73.252-56.11,117.976 c-37.199,2.354-66.745,33.349-66.745,71.13V413c0,22.199,15.606,40.81,36.418,45.461v40.101c0,7.421,6.018,13.438,13.438,13.438 h52.409c7.421,0,13.438-6.018,13.438-13.438v-38.971h13.438h253.259h13.438v38.971c0,7.421,6.018,13.438,13.438,13.438h52.409 c7.421,0,13.438-6.018,13.438-13.438V458.46c20.811-4.651,36.418-23.262,36.418-45.461V243.408 C511.772,224.369,504.356,206.466,490.89,193z M89.056,485.123H63.523v-25.533h25.533V485.123z M115.932,292.942v76.612v63.16 h-13.438H50.085h-3.279c-10.864,0-19.701-8.844-19.701-19.714V243.408c0-24.49,19.924-44.414,44.414-44.414 c2.13,0,4.21,0.146,6.274,0.449c9.555,1.332,18.244,5.676,25.13,12.562c8.39,8.388,13.01,19.541,13.01,31.403V292.942z M369.191,369.554v63.16H142.809v-49.722h138.724c7.421,0,13.438-6.018,13.438-13.438c0-7.421-6.018-13.438-13.438-13.438H142.809 V306.38h226.382V369.554z M369.191,243.408v36.095H142.809v-36.095c0-19.041-7.417-36.942-20.88-50.409 c-7.934-7.934-17.706-13.876-28.253-17.339C100.929,92.687,171.589,26.877,256,26.877c43.531,0,84.448,16.951,115.22,47.736 c27.338,27.326,43.833,62.872,47.115,101.041C389.613,185.07,369.191,212.297,369.191,243.408z M448.477,485.123h-25.533v-25.533 h25.533V485.123z M484.896,413h-0.001c0,10.87-8.837,19.714-19.701,19.714h-3.278h-52.409h-13.438v-63.16v-76.612v-49.534 c0-22.019,16.4-40.92,38.232-43.978c1.971-0.289,4.052-0.435,6.182-0.435c11.861,0,23.013,4.62,31.403,13.011 c8.39,8.391,13.011,19.542,13.011,31.403V413z"/> </g> </g> <g> <g> <path d="M333.942,356.115h-8.063c-7.421,0-13.438,6.018-13.438,13.438c0,7.421,6.018,13.438,13.438,13.438h8.063 c7.421,0,13.438-6.018,13.438-13.438C347.381,362.133,341.363,356.115,333.942,356.115z"/> </g> </g> </g>

</svg>